<svg width="77" height="525" viewBox="0 0 77 525" fill="none" xmlns="http://www.w3.org/2000/svg">
<path d="M37.5 0.5V340.5C25.5 349.167 1.9 366.9 3.5 368.5C5.1 370.1 4.16667 353.5 3.5 345L26 364.5C30.6667 367.167 41.2 372.2 46 371C52 369.5 66 362 73 355C80 348 47.5 339 44.5 340.5C42.1 341.7 43.5 359.667 44.5 368.5V466.5L37.5 468L35.5 476.5V487.5C30.3333 489 20.6 493.6 23 500C20.1667 506.5 15.2 519.7 18 520.5C20.8 521.3 41.1667 520.833 51 520.5V487.5C54 486.833 59.6 484.5 58 480.5C56.4 476.5 55.6667 474.167 55.5 473.5L46 472L42 465L35.5 470L34 485.5C27.9498 489 16.4796 496.6 19 499C22.1505 502 17 525.5 13.5 522C10 518.5 3.5 523.5 3.5 509.5C3.5 495.5 13.5 507.5 13.5 497.5C13.5 489.5 9.83333 486.167 8 485.5L5.5 483.5" stroke="#FF0000" stroke-width="5"/>
</svg>
